<?xml version="1.0" encoding="UTF-8"?>
<!DOCTYPE svg PUBLIC "-//W3C//DTD SVG 1.1//EN" "http://www.w3.org/Graphics/SVG/1.1/DTD/svg11.dtd">
<svg xmlns="http://www.w3.org/2000/svg" version="1.1" width="259px" height="237px" style="shape-rendering:geometricPrecision; text-rendering:geometricPrecision; image-rendering:optimizeQuality; fill-rule:evenodd; clip-rule:evenodd" xmlns:xlink="http://www.w3.org/1999/xlink">
<g><path style="opacity:1" fill="#fefefe" d="M -0.5,-0.5 C 85.8333,-0.5 172.167,-0.5 258.5,-0.5C 258.5,78.5 258.5,157.5 258.5,236.5C 172.167,236.5 85.8333,236.5 -0.5,236.5C -0.5,157.5 -0.5,78.5 -0.5,-0.5 Z"/></g>
<g><path style="opacity:1" fill="#ee9031" d="M 120.5,30.5 C 169.08,29.2706 199.914,51.9373 213,98.5C 217.377,139.924 201.21,170.091 164.5,189C 120.353,204.283 85.1859,192.783 59,154.5C 42.976,121.981 45.3093,90.9813 66,61.5C 80.4691,44.5195 98.6357,34.1862 120.5,30.5 Z"/></g>
<g><path style="opacity:1" fill="#fdfcf8" d="M 155.5,140.5 C 138.833,140.5 122.167,140.5 105.5,140.5C 105.263,141.791 105.596,142.791 106.5,143.5C 106.261,145.467 106.594,147.301 107.5,149C 126.833,149.333 146.167,149.667 165.5,150C 169.27,156.028 167.604,159.361 160.5,160C 165.333,167.513 163.333,172.347 154.5,174.5C 147.213,172.931 144.88,168.597 147.5,161.5C 148.043,161.44 148.376,161.107 148.5,160.5C 138.833,159.167 129.167,159.167 119.5,160.5C 119.624,161.107 119.957,161.44 120.5,161.5C 123.06,171.108 119.393,175.275 109.5,174C 103.88,169.923 103.213,165.256 107.5,160C 105.167,159.667 102.833,159.333 100.5,159C 99.2986,158.097 98.4652,156.931 98,155.5C 92.9512,132.539 88.1179,109.539 83.5,86.5C 78.4889,86.6659 73.4889,86.4993 68.5,86C 65.8333,83 65.8333,80 68.5,77C 75.8333,76.3333 83.1667,76.3333 90.5,77C 91.3081,77.3076 91.9747,77.8076 92.5,78.5C 96.9298,95.6474 100.596,112.981 103.5,130.5C 120.411,130.825 137.244,130.492 154,129.5C 156.702,124.18 155.535,120.013 150.5,117C 140.891,113.847 131.225,110.847 121.5,108C 105.529,101.435 101.363,90.2687 109,74.5C 116.063,66.6437 124.896,62.9771 135.5,63.5C 146.493,62.9973 156.826,65.3307 166.5,70.5C 167.614,71.723 167.781,73.0563 167,74.5C 165.498,77.0184 163.998,79.5184 162.5,82C 160.833,82.6667 159.167,82.6667 157.5,82C 148.543,78.0756 139.21,76.7423 129.5,78C 121.723,80.2183 119.723,84.885 123.5,92C 134.62,96.281 145.954,99.9477 157.5,103C 170.787,109.52 174.62,119.687 169,133.5C 166.239,139.131 161.739,141.464 155.5,140.5 Z"/></g>
<g><path style="opacity:1" fill="#f2b26a" d="M 155.5,140.5 C 138.974,140.838 122.641,141.838 106.5,143.5C 105.596,142.791 105.263,141.791 105.5,140.5C 122.167,140.5 138.833,140.5 155.5,140.5 Z"/></g>
<g><path style="opacity:1" fill="#f2a95e" d="M 147.5,161.5 C 138.5,160.167 129.5,160.167 120.5,161.5C 119.957,161.44 119.624,161.107 119.5,160.5C 129.167,159.167 138.833,159.167 148.5,160.5C 148.376,161.107 148.043,161.44 147.5,161.5 Z"/></g>
</svg>
