<?xml version="1.0" encoding="UTF-8"?>
<!DOCTYPE svg PUBLIC "-//W3C//DTD SVG 1.1//EN" "http://www.w3.org/Graphics/SVG/1.1/DTD/svg11.dtd">
<svg xmlns="http://www.w3.org/2000/svg" version="1.1" width="259px" height="237px" style="shape-rendering:geometricPrecision; text-rendering:geometricPrecision; image-rendering:optimizeQuality; fill-rule:evenodd; clip-rule:evenodd" xmlns:xlink="http://www.w3.org/1999/xlink">
<g><path style="opacity:1" fill="#ee9030" d="M 123.5,195.5 C 121.708,194.691 119.708,194.191 117.5,194C 118.833,193.667 120.167,193.333 121.5,193C 119.939,192.682 118.772,191.849 118,190.5C 116.919,192.767 115.419,192.934 113.5,191C 114.973,190.29 115.64,189.124 115.5,187.5C 110.292,188.127 107.792,185.794 108,180.5C 106.249,179.826 104.583,179.493 103,179.5C 102.833,179.167 102.667,178.833 102.5,178.5C 104.571,176.815 106.571,175.148 108.5,173.5C 118.833,175.833 122.833,171.833 120.5,161.5C 129.5,160.167 138.5,160.167 147.5,161.5C 145.171,172.005 149.171,175.839 159.5,173C 164.313,168.959 164.646,164.625 160.5,160C 167.604,159.361 169.27,156.028 165.5,150C 146.167,149.667 126.833,149.333 107.5,149C 106.594,147.301 106.261,145.467 106.5,143.5C 122.641,141.838 138.974,140.838 155.5,140.5C 161.739,141.464 166.239,139.131 169,133.5C 174.429,120.789 171.262,110.956 159.5,104C 147.392,100.307 135.392,96.3068 123.5,92C 119.723,84.885 121.723,80.2183 129.5,78C 139.21,76.7423 148.543,78.0756 157.5,82C 159.167,82.6667 160.833,82.6667 162.5,82C 163.874,79.4171 165.374,76.9171 167,74.5C 167.781,73.0563 167.614,71.723 166.5,70.5C 151.708,63.29 136.375,61.79 120.5,66C 104.41,74.3753 101.077,86.3753 110.5,102C 113.934,104.435 117.6,106.435 121.5,108C 131.225,110.847 140.891,113.847 150.5,117C 155.535,120.013 156.702,124.18 154,129.5C 137.244,130.492 120.411,130.825 103.5,130.5C 100.596,112.981 96.9298,95.6474 92.5,78.5C 91.9747,77.8076 91.3081,77.3076 90.5,77C 83.1667,76.3333 75.8333,76.3333 68.5,77C 65.8333,80 65.8333,83 68.5,86C 73.4889,86.4993 78.4889,86.6659 83.5,86.5C 86.5509,99.7544 89.2175,113.088 91.5,126.5C 89.502,128.6 87.3353,130.6 85,132.5C 84.479,129.126 83.1457,126.126 81,123.5C 80.4305,117.991 79.2639,112.657 77.5,107.5C 75.9602,105.563 73.9602,104.396 71.5,104C 71.8333,103.667 72.1667,103.333 72.5,103C 71.3067,100.973 69.64,99.4733 67.5,98.5C 65.7362,101.177 64.5696,100.844 64,97.5C 62.1841,95.5586 60.1841,94.8919 58,95.5C 57.7315,100.65 56.7315,105.65 55,110.5C 53.4201,107.028 53.0867,103.362 54,99.5C 56.2018,91.8931 58.2018,84.2264 60,76.5C 65.7898,70.7193 70.7898,64.386 75,57.5C 76.0113,56.6634 77.1779,56.33 78.5,56.5C 78.1667,53.5 79.5,52.1667 82.5,52.5C 82.33,51.1779 82.6634,50.0113 83.5,49C 95.2002,40.6547 108.2,35.3214 122.5,33C 120.292,32.8091 118.292,32.3091 116.5,31.5C 158.695,27.1742 189.195,43.8409 208,81.5C 221.799,123.092 211.299,156.925 176.5,183C 160.192,192.994 142.526,197.16 123.5,195.5 Z"/></g>
<g><path style="opacity:1" fill="#fcfbf8" d="M 155.5,140.5 C 138.833,140.5 122.167,140.5 105.5,140.5C 105.263,141.791 105.596,142.791 106.5,143.5C 106.261,145.467 106.594,147.301 107.5,149C 126.833,149.333 146.167,149.667 165.5,150C 169.27,156.028 167.604,159.361 160.5,160C 164.646,164.625 164.313,168.959 159.5,173C 149.171,175.839 145.171,172.005 147.5,161.5C 148.043,161.44 148.376,161.107 148.5,160.5C 138.833,159.167 129.167,159.167 119.5,160.5C 119.624,161.107 119.957,161.44 120.5,161.5C 122.833,171.833 118.833,175.833 108.5,173.5C 103.752,169.282 103.419,164.782 107.5,160C 105.167,159.667 102.833,159.333 100.5,159C 99.2986,158.097 98.4652,156.931 98,155.5C 95.8306,145.808 93.6639,136.142 91.5,126.5C 89.2175,113.088 86.5509,99.7544 83.5,86.5C 78.4889,86.6659 73.4889,86.4993 68.5,86C 65.8333,83 65.8333,80 68.5,77C 75.8333,76.3333 83.1667,76.3333 90.5,77C 91.3081,77.3076 91.9747,77.8076 92.5,78.5C 96.9298,95.6474 100.596,112.981 103.5,130.5C 120.411,130.825 137.244,130.492 154,129.5C 156.702,124.18 155.535,120.013 150.5,117C 140.891,113.847 131.225,110.847 121.5,108C 117.6,106.435 113.934,104.435 110.5,102C 101.077,86.3753 104.41,74.3753 120.5,66C 136.375,61.79 151.708,63.29 166.5,70.5C 167.614,71.723 167.781,73.0563 167,74.5C 165.374,76.9171 163.874,79.4171 162.5,82C 160.833,82.6667 159.167,82.6667 157.5,82C 148.543,78.0756 139.21,76.7423 129.5,78C 121.723,80.2183 119.723,84.885 123.5,92C 135.392,96.3068 147.392,100.307 159.5,104C 171.262,110.956 174.429,120.789 169,133.5C 166.239,139.131 161.739,141.464 155.5,140.5 Z"/></g>
<g><path style="opacity:1" fill="#ed8e30" d="M 116.5,31.5 C 118.292,32.3091 120.292,32.8091 122.5,33C 108.2,35.3214 95.2002,40.6547 83.5,49C 82.6634,50.0113 82.33,51.1779 82.5,52.5C 79.5,52.1667 78.1667,53.5 78.5,56.5C 77.1779,56.33 76.0113,56.6634 75,57.5C 70.7898,64.386 65.7898,70.7193 60,76.5C 58.2018,84.2264 56.2018,91.8931 54,99.5C 53.0867,103.362 53.4201,107.028 55,110.5C 56.7315,105.65 57.7315,100.65 58,95.5C 60.1841,94.8919 62.1841,95.5586 64,97.5C 64.5696,100.844 65.7362,101.177 67.5,98.5C 69.64,99.4733 71.3067,100.973 72.5,103C 72.1667,103.333 71.8333,103.667 71.5,104C 73.9602,104.396 75.9602,105.563 77.5,107.5C 79.2639,112.657 80.4305,117.991 81,123.5C 83.1457,126.126 84.479,129.126 85,132.5C 87.3353,130.6 89.502,128.6 91.5,126.5C 93.6639,136.142 95.8306,145.808 98,155.5C 98.4652,156.931 99.2986,158.097 100.5,159C 102.833,159.333 105.167,159.667 107.5,160C 103.419,164.782 103.752,169.282 108.5,173.5C 106.571,175.148 104.571,176.815 102.5,178.5C 102.667,178.833 102.833,179.167 103,179.5C 104.583,179.493 106.249,179.826 108,180.5C 107.792,185.794 110.292,188.127 115.5,187.5C 115.64,189.124 114.973,190.29 113.5,191C 115.419,192.934 116.919,192.767 118,190.5C 118.772,191.849 119.939,192.682 121.5,193C 120.167,193.333 118.833,193.667 117.5,194C 119.708,194.191 121.708,194.691 123.5,195.5C 86.5766,190.95 62.4099,170.95 51,135.5C 42.0958,90.4805 57.9291,57.6471 98.5,37C 104.448,34.8496 110.448,33.0163 116.5,31.5 Z"/></g>
<g><path style="opacity:1" fill="#f2b26a" d="M 155.5,140.5 C 138.974,140.838 122.641,141.838 106.5,143.5C 105.596,142.791 105.263,141.791 105.5,140.5C 122.167,140.5 138.833,140.5 155.5,140.5 Z"/></g>
<g><path style="opacity:1" fill="#f2a95e" d="M 147.5,161.5 C 138.5,160.167 129.5,160.167 120.5,161.5C 119.957,161.44 119.624,161.107 119.5,160.5C 129.167,159.167 138.833,159.167 148.5,160.5C 148.376,161.107 148.043,161.44 147.5,161.5 Z"/></g>
</svg>
