<svg width="641" height="580" viewBox="0 0 641 580" fill="none" xmlns="http://www.w3.org/2000/svg">
<path d="M0 91L83 183L301 101L218 10L0 91Z" fill="#FFD200"/>
<path d="M335 253V580L553 498V171L335 253Z" fill="#FFB300"/>
<path d="M301 101L83 183L300 243.5L301 101Z" fill="#EF9B00"/>
<path d="M423 340L335 253L553 171L641 258L423 340Z" fill="#FFD90A"/>
<path d="M83 510L335 580V253L83 183V510Z" fill="#FFD90A"/>
<path d="M335 253L300 243.5L301 101L553 171L335 253Z" fill="#FFB900"/>
<path d="M553 171L301 101L372 0L624 70L553 171Z" fill="#FFD907"/>
<path d="M83 183L335 253L291.5 378.5L83.5 324L83 183Z" fill="#FFB500"/>
<path d="M335 253L266 345L14 275L83 183L335 253Z" fill="#FFD90A"/>
<g filter="url(#filter0_d_3_75)">
<path d="M247.5 373C247.5 373 231.4 391.6 231 392C231 392 227.946 387.752 225.5 385.5C222.711 382.932 220.684 382.058 217.5 380C214.997 378.382 213.646 377.372 211 376C208.359 374.631 206.84 373.883 204 373C201.148 372.113 199.487 371.459 196.5 371.5C193.705 371.538 192.003 371.754 189.5 373C187.507 373.992 186.235 374.648 185 376.5C183.765 378.352 183.688 379.782 183.5 382C183.267 384.752 183.477 386.435 184.5 389C185.686 391.975 187.238 393.233 189.5 395.5C192.981 398.989 195.701 400.091 200 402.5C204.497 405.02 207.404 405.665 212 408C217.614 410.852 220.684 412.625 226 416C231.443 419.455 235.364 420.555 239.5 425.5C242.639 429.253 243.469 432.048 245.5 436.5C247.321 440.492 248.697 442.686 249.5 447C250.322 451.415 251 454.009 251 458.5C251 462.991 251 466.5 250 470C249 473.5 241 483.2 236.5 486.5C232 489.8 221 493.797 205 492.5C189 491.203 179 489 169.5 482C160 475 155.833 467.833 150.5 461.5L166.5 442.5C166.5 442.5 176.35 454.573 179.5 457.5C182.65 460.427 184.195 461.996 188 464C191.607 465.9 194.037 466.54 198 467.5C201.963 468.46 211 469 211 469C211 469 216.98 469.772 220 466.5C222.73 463.542 222.665 460.522 222.5 456.5C222.358 453.043 221.596 451.07 220 448C217 442.231 212.909 440.609 207.5 437C201.907 433.267 197.994 432.548 192 429.5C186.082 426.491 182.389 425.378 177 421.5C171.283 417.386 168.21 414.646 164 409C160.655 404.515 158.699 401.831 157 396.5C155.301 391.169 155.529 387.693 155.5 382C155.482 378.48 155.435 376.474 156 373C156.586 369.4 156.974 367.313 158.5 364C160.428 359.814 162.311 357.826 165.5 354.5C167.318 352.604 168.381 351.552 170.5 350C172.689 348.397 173.973 347.486 176.5 346.5C179.105 345.484 180.732 345.393 183.5 345C186.599 344.56 188.37 344.511 191.5 344.5C198.79 344.475 202.984 345.019 210 347C216.983 348.972 220.88 350.601 227 354.5C232.145 357.778 234.52 360.36 239 364.5C242.448 367.686 247.5 373 247.5 373Z" fill="#1B1819"/>
<path d="M247.5 373C247.5 373 231.4 391.6 231 392C231 392 227.946 387.752 225.5 385.5C222.711 382.932 220.684 382.058 217.5 380C214.997 378.382 213.646 377.372 211 376C208.359 374.631 206.84 373.883 204 373C201.148 372.113 199.487 371.459 196.5 371.5C193.705 371.538 192.003 371.754 189.5 373C187.507 373.992 186.235 374.648 185 376.5C183.765 378.352 183.688 379.782 183.5 382C183.267 384.752 183.477 386.435 184.5 389C185.686 391.975 187.238 393.233 189.5 395.5C192.981 398.989 195.701 400.091 200 402.5C204.497 405.02 207.404 405.665 212 408C217.614 410.852 220.684 412.625 226 416C231.443 419.455 235.364 420.555 239.5 425.5C242.639 429.253 243.469 432.048 245.5 436.5C247.321 440.492 248.697 442.686 249.5 447C250.322 451.415 251 454.009 251 458.5C251 462.991 251 466.5 250 470C249 473.5 241 483.2 236.5 486.5C232 489.8 221 493.797 205 492.5C189 491.203 179 489 169.5 482C160 475 155.833 467.833 150.5 461.5L166.5 442.5C166.5 442.5 176.35 454.573 179.5 457.5C182.65 460.427 184.195 461.996 188 464C191.607 465.9 194.037 466.54 198 467.5C201.963 468.46 211 469 211 469C211 469 216.98 469.772 220 466.5C222.73 463.542 222.665 460.522 222.5 456.5C222.358 453.043 221.596 451.07 220 448C217 442.231 212.909 440.609 207.5 437C201.907 433.267 197.994 432.548 192 429.5C186.082 426.491 182.389 425.378 177 421.5C171.283 417.386 168.21 414.646 164 409C160.655 404.515 158.699 401.831 157 396.5C155.301 391.169 155.529 387.693 155.5 382C155.482 378.48 155.435 376.474 156 373C156.586 369.4 156.974 367.313 158.5 364C160.428 359.814 162.311 357.826 165.5 354.5C167.318 352.604 168.381 351.552 170.5 350C172.689 348.397 173.973 347.486 176.5 346.5C179.105 345.484 180.732 345.393 183.5 345C186.599 344.56 188.37 344.511 191.5 344.5C198.79 344.475 202.984 345.019 210 347C216.983 348.972 220.88 350.601 227 354.5C232.145 357.778 234.52 360.36 239 364.5C242.448 367.686 247.5 373 247.5 373Z" stroke="black"/>
</g>
<path d="M239.5 365L174 348C174 348 175.473 346.991 176.5 346.5C177.527 346.009 180.732 345.393 183.5 345C186.268 344.607 188.37 344.511 191.5 344.5C194.63 344.489 203.017 345.028 210 347C216.983 348.972 221.62 351.08 227 354.5C232.38 357.92 239.5 365 239.5 365Z" fill="black"/>
<defs>
<filter id="filter0_d_3_75" x="146.5" y="344.499" width="108.5" height="156.252" filterUnits="userSpaceOnUse" color-interpolation-filters="sRGB">
<feFlood flood-opacity="0" result="BackgroundImageFix"/>
<feColorMatrix in="SourceAlpha" type="matrix" values="0 0 0 0 0 0 0 0 0 0 0 0 0 0 0 0 0 0 127 0" result="hardAlpha"/>
<feOffset dy="4"/>
<feGaussianBlur stdDeviation="2"/>
<feComposite in2="hardAlpha" operator="out"/>
<feColorMatrix type="matrix" values="0 0 0 0 0 0 0 0 0 0 0 0 0 0 0 0 0 0 0.25 0"/>
<feBlend mode="normal" in2="BackgroundImageFix" result="effect1_dropShadow_3_75"/>
<feBlend mode="normal" in="SourceGraphic" in2="effect1_dropShadow_3_75" result="shape"/>
</filter>
</defs>
</svg>
